<mxfile host="app.diagrams.net" modified="2020-10-04T17:31:13.171Z" agent="5.0 (Windows)" etag="NYD57Q7R04JIkYgjO8s_" version="13.7.7" type="github">
  <diagram id="L5TrZxPz9TGMQy6RSqq3" name="Page-1">
    <mxGraphModel dx="1038" dy="547" grid="1" gridSize="10" guides="1" tooltips="1" connect="1" arrows="1" fold="1" page="1" pageScale="1" pageWidth="850" pageHeight="1100" math="0" shadow="0">
      <root>
        <mxCell id="0" />
        <mxCell id="1" parent="0" />
        <mxCell id="fGDlWY2AfShx_wIPnLRX-10" value="" style="rounded=0;whiteSpace=wrap;html=1;strokeColor=#9673a6;fillColor=#F6E9FC;" vertex="1" parent="1">
          <mxGeometry x="110" y="70" width="570" height="430" as="geometry" />
        </mxCell>
        <mxCell id="fGDlWY2AfShx_wIPnLRX-2" value="" style="ellipse;whiteSpace=wrap;html=1;aspect=fixed;" vertex="1" parent="1">
          <mxGeometry x="530" y="180" width="30" height="30" as="geometry" />
        </mxCell>
        <mxCell id="fGDlWY2AfShx_wIPnLRX-3" value="" style="ellipse;whiteSpace=wrap;html=1;aspect=fixed;" vertex="1" parent="1">
          <mxGeometry x="200" y="330" width="30" height="30" as="geometry" />
        </mxCell>
        <mxCell id="fGDlWY2AfShx_wIPnLRX-4" value="" style="ellipse;whiteSpace=wrap;html=1;aspect=fixed;" vertex="1" parent="1">
          <mxGeometry x="350" y="350" width="30" height="30" as="geometry" />
        </mxCell>
        <mxCell id="fGDlWY2AfShx_wIPnLRX-5" value="" style="ellipse;whiteSpace=wrap;html=1;aspect=fixed;" vertex="1" parent="1">
          <mxGeometry x="180" y="280" width="30" height="30" as="geometry" />
        </mxCell>
        <mxCell id="fGDlWY2AfShx_wIPnLRX-6" value="" style="ellipse;whiteSpace=wrap;html=1;aspect=fixed;" vertex="1" parent="1">
          <mxGeometry x="220" y="100" width="30" height="30" as="geometry" />
        </mxCell>
        <mxCell id="fGDlWY2AfShx_wIPnLRX-7" value="" style="ellipse;whiteSpace=wrap;html=1;aspect=fixed;" vertex="1" parent="1">
          <mxGeometry x="340" y="200" width="30" height="30" as="geometry" />
        </mxCell>
        <mxCell id="fGDlWY2AfShx_wIPnLRX-8" value="" style="ellipse;whiteSpace=wrap;html=1;aspect=fixed;" vertex="1" parent="1">
          <mxGeometry x="210" y="190" width="30" height="30" as="geometry" />
        </mxCell>
        <mxCell id="fGDlWY2AfShx_wIPnLRX-9" value="" style="ellipse;whiteSpace=wrap;html=1;aspect=fixed;" vertex="1" parent="1">
          <mxGeometry x="230" y="230" width="30" height="30" as="geometry" />
        </mxCell>
      </root>
    </mxGraphModel>
  </diagram>
</mxfile>
